<svg xmlns="http://www.w3.org/2000/svg" style="display:none" aria-hidden="true">
  <!-- the12 v3 line-icon sprite. 24x24 grid, 1.6 stroke, round caps. -->
  <symbol id="i-chev" viewBox="0 0 24 24" fill="none" stroke="currentColor" stroke-width="1.8" stroke-linecap="round" stroke-linejoin="round"><path d="M6 9.5 12 15.5 18 9.5"/></symbol>
  <symbol id="i-arrow" viewBox="0 0 24 24" fill="none" stroke="currentColor" stroke-width="1.7" stroke-linecap="round" stroke-linejoin="round"><path d="M4.5 12h14M13 6.5 18.5 12 13 17.5"/></symbol>
  <symbol id="i-arrow-left" viewBox="0 0 24 24" fill="none" stroke="currentColor" stroke-width="1.7" stroke-linecap="round" stroke-linejoin="round"><path d="M19.5 12h-14M11 6.5 5.5 12 11 17.5"/></symbol>
  <symbol id="i-search" viewBox="0 0 24 24" fill="none" stroke="currentColor" stroke-width="1.8" stroke-linecap="round"><circle cx="10.5" cy="10.5" r="6.5"/><path d="M15.4 15.4 20 20"/></symbol>
  <symbol id="i-bookmark" viewBox="0 0 24 24" fill="none" stroke="currentColor" stroke-width="1.7" stroke-linecap="round" stroke-linejoin="round"><path d="M6.5 4.5h11a1 1 0 0 1 1 1V20l-6.5-4-6.5 4V5.5a1 1 0 0 1 1-1Z"/></symbol>
  <symbol id="i-menu" viewBox="0 0 24 24" fill="none" stroke="currentColor" stroke-width="1.8" stroke-linecap="round"><path d="M4 7h16M4 12h16M4 17h16"/></symbol>
  <symbol id="i-check" viewBox="0 0 24 24" fill="none" stroke="currentColor" stroke-width="2.4" stroke-linecap="round" stroke-linejoin="round"><path d="M5 12.5 10 17.5 19 7"/></symbol>
  <symbol id="i-box" viewBox="0 0 24 24" fill="none" stroke="currentColor" stroke-width="1.6" stroke-linecap="round" stroke-linejoin="round"><path d="M3.5 8.2 12 4l8.5 4.2v7.6L12 20l-8.5-4.2V8.2Z"/><path d="M3.5 8.2 12 12.4l8.5-4.2M12 12.4V20"/></symbol>
  <symbol id="i-doc" viewBox="0 0 24 24" fill="none" stroke="currentColor" stroke-width="1.6" stroke-linecap="round" stroke-linejoin="round"><path d="M14 3.5H7a1.5 1.5 0 0 0-1.5 1.5v14A1.5 1.5 0 0 0 7 20.5h10a1.5 1.5 0 0 0 1.5-1.5V8l-4.5-4.5Z"/><path d="M13.8 3.7V8.3h4.5M8.8 14.2l2 2 4-4.4"/></symbol>
  <symbol id="i-tag" viewBox="0 0 24 24" fill="none" stroke="currentColor" stroke-width="1.6" stroke-linecap="round" stroke-linejoin="round"><path d="M11.3 3.7H5a1.3 1.3 0 0 0-1.3 1.3v6.3a1.3 1.3 0 0 0 .4.9l8 8a1.3 1.3 0 0 0 1.8 0l6.3-6.3a1.3 1.3 0 0 0 0-1.8l-8-8a1.3 1.3 0 0 0-.9-.4Z"/><circle cx="8.2" cy="8.2" r="1.3"/></symbol>
  <symbol id="i-shelf" viewBox="0 0 24 24" fill="none" stroke="currentColor" stroke-width="1.6" stroke-linecap="round" stroke-linejoin="round"><path d="M3 19.2h18"/><rect x="5" y="7" width="4.4" height="12" rx="1.4"/><rect x="11.1" y="9.6" width="4.4" height="9.4" rx="1.4"/><rect x="17.2" y="12.4" width="4.4" height="6.6" rx="1.4" stroke-dasharray="2.6 2.2"/></symbol>
  <symbol id="i-flask" viewBox="0 0 24 24" fill="none" stroke="currentColor" stroke-width="1.6" stroke-linecap="round" stroke-linejoin="round"><path d="M9.5 3.5h5M10.3 3.5v6L5.6 17.4A1.6 1.6 0 0 0 7 19.9h10a1.6 1.6 0 0 0 1.4-2.5L13.7 9.5v-6"/><path d="M8 14.3h8"/></symbol>
  <symbol id="i-shield" viewBox="0 0 24 24" fill="none" stroke="currentColor" stroke-width="1.6" stroke-linecap="round" stroke-linejoin="round"><path d="M12 3.4 5.2 6v6c0 4.1 2.8 7 6.8 8.6 4-1.6 6.8-4.5 6.8-8.6V6L12 3.4Z"/><path d="M9.3 14.7 14.7 9.3M9.3 9.3l5.4 5.4"/></symbol>
  <symbol id="i-leaf" viewBox="0 0 24 24" fill="none" stroke="currentColor" stroke-width="1.6" stroke-linecap="round" stroke-linejoin="round"><path d="M5.2 18.8c0-7.4 6-13.4 13.4-13.4 0 7.4-6 13.4-13.4 13.4Z"/><path d="M5.2 18.8 12.4 11.6"/></symbol>
  <symbol id="i-truck" viewBox="0 0 24 24" fill="none" stroke="currentColor" stroke-width="1.6" stroke-linecap="round" stroke-linejoin="round"><path d="M2.8 6.2h10.4v9H2.8zM13.2 9.2h3.6l3.4 3.4v2.6h-7z"/><circle cx="6.6" cy="17.6" r="1.8"/><circle cx="16.6" cy="17.6" r="1.8"/></symbol>
</svg>
