<svg xmlns="http://www.w3.org/2000/svg" viewBox="0 0 480 480" width="100%" height="100%" preserveAspectRatio="xMidYMid meet" role="img" aria-label="Beta-Alanine">
  <defs><linearGradient id="gBody-p22" x1="0" y1="0" x2="1" y2="0">
      <stop offset="0" stop-color="#94111c"/>
      <stop offset="0.16" stop-color="#d31828"/>
      <stop offset="0.42" stop-color="#e43a49"/>
      <stop offset="0.66" stop-color="#E01A2B"/>
      <stop offset="1" stop-color="#9d121e"/>
    </linearGradient><linearGradient id="gLid-p22" x1="0" y1="0" x2="1" y2="0">
      <stop offset="0" stop-color="#560a10"/>
      <stop offset="0.16" stop-color="#7a0e18"/>
      <stop offset="0.42" stop-color="#943139"/>
      <stop offset="0.66" stop-color="#820f19"/>
      <stop offset="1" stop-color="#5b0b12"/>
    </linearGradient></defs>
  
  <ellipse cx="240.0" cy="415.8" rx="150.3" ry="16.8" fill="#0d1b1e" opacity="0.15"/>
         <ellipse cx="240.0" cy="413.8" rx="106.3" ry="9.1" fill="#0d1b1e" opacity="0.2"/>
  
      <rect x="102.62399999999997" y="81.50400000000002" width="274.75200000000007" height="52.8" rx="6" fill="url(#gLid-p22)"/>
      <rect x="108.6" y="88.5" width="2" height="38.8" fill="#000" opacity="0.13" rx="1"/><rect x="146.2" y="88.5" width="2" height="38.8" fill="#000" opacity="0.13" rx="1"/><rect x="183.7" y="88.5" width="2" height="38.8" fill="#000" opacity="0.13" rx="1"/><rect x="221.2" y="88.5" width="2" height="38.8" fill="#000" opacity="0.13" rx="1"/><rect x="258.8" y="88.5" width="2" height="38.8" fill="#000" opacity="0.13" rx="1"/><rect x="296.3" y="88.5" width="2" height="38.8" fill="#000" opacity="0.13" rx="1"/><rect x="333.8" y="88.5" width="2" height="38.8" fill="#000" opacity="0.13" rx="1"/>
      <rect x="102.62399999999997" y="131.30400000000003" width="274.75200000000007" height="3" fill="#000" opacity="0.18"/>
      <path d="M110.39999999999998 132.8 q0 -8 9 -8 h241.20000000000005 q9 0 9 8 v268 q0 12 -12 12 h-235.20000000000005 q-12 0 -12 -12 z" fill="url(#gBody-p22)"/>
      <rect x="110.39999999999998" y="337.92" width="259.20000000000005" height="24.48" fill="#121212" opacity="0.92"/>
    
  <rect x="136.32" y="254.976" width="87.09120000000001" height="53.913599999999995" fill="#ffffff" opacity="0.16"/>
  <line x1="136.3" y1="231.0" x2="343.7" y2="231.0" stroke="#ffffff" stroke-width="1" opacity="0.32"/>
  <text x="240.0" y="216.0" text-anchor="middle" font-family="'Plus Jakarta Sans', 'Segoe UI', system-ui, sans-serif" font-size="44.9" font-weight="700" letter-spacing="-0.02em" fill="#ffffff">BETA</text>
  <text x="240.0" y="254.6" text-anchor="middle" font-family="'Plus Jakarta Sans', 'Segoe UI', system-ui, sans-serif" font-size="13.5" font-weight="500" letter-spacing="0.08em" fill="#ffffff" opacity="0.72">3.2 G</text>
</svg>