<svg xmlns="http://www.w3.org/2000/svg" viewBox="0 0 480 480" width="100%" height="100%" preserveAspectRatio="xMidYMid meet" role="img" aria-label="Amino Synergy">
  <defs><linearGradient id="gBody-p1v" x1="0" y1="0" x2="1" y2="0">
      <stop offset="0" stop-color="#0b1015"/>
      <stop offset="0.16" stop-color="#0f171e"/>
      <stop offset="0.42" stop-color="#31383f"/>
      <stop offset="0.66" stop-color="#101820"/>
      <stop offset="1" stop-color="#0b1116"/>
    </linearGradient><linearGradient id="gLid-p1v" x1="0" y1="0" x2="1" y2="0">
      <stop offset="0" stop-color="#06090d"/>
      <stop offset="0.16" stop-color="#080d12"/>
      <stop offset="0.42" stop-color="#2b3034"/>
      <stop offset="0.66" stop-color="#090e13"/>
      <stop offset="1" stop-color="#060a0d"/>
    </linearGradient></defs>
  
  <ellipse cx="240.0" cy="415.8" rx="150.3" ry="16.8" fill="#0d1b1e" opacity="0.15"/>
         <ellipse cx="240.0" cy="413.8" rx="106.3" ry="9.1" fill="#0d1b1e" opacity="0.2"/>
  
      <rect x="102.62399999999997" y="81.50400000000002" width="274.75200000000007" height="52.8" rx="6" fill="url(#gLid-p1v)"/>
      <rect x="108.6" y="88.5" width="2" height="38.8" fill="#000" opacity="0.13" rx="1"/><rect x="146.2" y="88.5" width="2" height="38.8" fill="#000" opacity="0.13" rx="1"/><rect x="183.7" y="88.5" width="2" height="38.8" fill="#000" opacity="0.13" rx="1"/><rect x="221.2" y="88.5" width="2" height="38.8" fill="#000" opacity="0.13" rx="1"/><rect x="258.8" y="88.5" width="2" height="38.8" fill="#000" opacity="0.13" rx="1"/><rect x="296.3" y="88.5" width="2" height="38.8" fill="#000" opacity="0.13" rx="1"/><rect x="333.8" y="88.5" width="2" height="38.8" fill="#000" opacity="0.13" rx="1"/>
      <rect x="102.62399999999997" y="131.30400000000003" width="274.75200000000007" height="3" fill="#000" opacity="0.18"/>
      <path d="M110.39999999999998 132.8 q0 -8 9 -8 h241.20000000000005 q9 0 9 8 v268 q0 12 -12 12 h-235.20000000000005 q-12 0 -12 -12 z" fill="url(#gBody-p1v)"/>
      <rect x="110.39999999999998" y="337.92" width="259.20000000000005" height="24.48" fill="#00B2A9" opacity="0.92"/>
    
  <path d="M136.32 314.88 a124.41600000000003 89.856 0 0 1 207.36000000000004 0" fill="none" stroke="#ffffff" stroke-width="10.4832" opacity="0.26"/>
  <line x1="136.3" y1="231.0" x2="343.7" y2="231.0" stroke="#ffffff" stroke-width="1" opacity="0.32"/>
  <text x="240.0" y="216.0" text-anchor="middle" font-family="'Plus Jakarta Sans', 'Segoe UI', system-ui, sans-serif" font-size="44.9" font-weight="700" letter-spacing="-0.02em" fill="#ffffff">AMINO</text>
  <text x="240.0" y="254.6" text-anchor="middle" font-family="'Plus Jakarta Sans', 'Segoe UI', system-ui, sans-serif" font-size="13.5" font-weight="500" letter-spacing="0.08em" fill="#ffffff" opacity="0.72">2.5 G</text>
</svg>