<svg xmlns="http://www.w3.org/2000/svg" viewBox="0 0 480 480" width="100%" height="100%" preserveAspectRatio="xMidYMid meet" role="img" aria-label="Naked Mass">
  <defs><linearGradient id="gBody-p5m" x1="0" y1="0" x2="1" y2="0">
      <stop offset="0" stop-color="#9e9e9a"/>
      <stop offset="0.16" stop-color="#e2e1dc"/>
      <stop offset="0.42" stop-color="#f2f1ed"/>
      <stop offset="0.66" stop-color="#F0EFEA"/>
      <stop offset="1" stop-color="#a8a7a4"/>
    </linearGradient></defs>
  
  <ellipse cx="240.0" cy="394.0" rx="122.5" ry="13.7" fill="#0d1b1e" opacity="0.15"/>
         <ellipse cx="240.0" cy="392.0" rx="86.6" ry="7.4" fill="#0d1b1e" opacity="0.2"/>
  
      <path d="M114 76.8 h252 v16 h-252 z" fill="#959491"/>
      <circle cx="240" cy="84.8" r="3.2" fill="#f8f7f5" opacity="0.5"/>
      <path d="M120 92.8 h240 v279.68 q0 16.8 -14.399999999999999 23.520000000000003 h-211.2 q-14.399999999999999 -6.72 -14.399999999999999 -23.520000000000003 z" fill="url(#gBody-p5m)"/>
      <path d="M134.4 372.48 h211.2 l-21.599999999999998 18.48 h-168 z" fill="#8b8b88"/>
      <rect x="120" y="298.56" width="240" height="16.8" fill="#2B2B2B" opacity="0.92"/>
    
  <path d="M144 260.8 L336 169.072 L336 204.35199999999998 L144 263.6224 z" fill="#101a1c" opacity="0.16"/>
  <line x1="144.0" y1="181.8" x2="336.0" y2="181.8" stroke="#101a1c" stroke-width="1" opacity="0.32"/>
  <text x="240.0" y="167.7" text-anchor="middle" font-family="'Plus Jakarta Sans', 'Segoe UI', system-ui, sans-serif" font-size="42.3" font-weight="700" letter-spacing="-0.02em" fill="#101a1c">NAKED</text>
  <text x="240.0" y="204.0" text-anchor="middle" font-family="'Plus Jakarta Sans', 'Segoe UI', system-ui, sans-serif" font-size="12.7" font-weight="500" letter-spacing="0.08em" fill="#101a1c" opacity="0.72">50 G PROTEIN</text>
</svg>