<svg xmlns="http://www.w3.org/2000/svg" viewBox="0 0 480 480" width="100%" height="100%" preserveAspectRatio="xMidYMid meet" role="img" aria-label="Original Meal Replacement Shake">
  <defs><linearGradient id="gBody-p6a" x1="0" y1="0" x2="1" y2="0">
      <stop offset="0" stop-color="#461266"/>
      <stop offset="0.16" stop-color="#641991"/>
      <stop offset="0.42" stop-color="#7f3ba8"/>
      <stop offset="0.66" stop-color="#6A1B9A"/>
      <stop offset="1" stop-color="#4a136c"/>
    </linearGradient><linearGradient id="gCap-p6a" x1="0" y1="0" x2="1" y2="0">
      <stop offset="0" stop-color="#230933"/>
      <stop offset="0.16" stop-color="#320d48"/>
      <stop offset="0.42" stop-color="#513066"/>
      <stop offset="0.66" stop-color="#350e4d"/>
      <stop offset="1" stop-color="#250a36"/>
    </linearGradient></defs>
  
  <ellipse cx="240.0" cy="411.4" rx="100.2" ry="11.2" fill="#0d1b1e" opacity="0.15"/>
         <ellipse cx="240.0" cy="409.4" rx="70.8" ry="6.0" fill="#0d1b1e" opacity="0.2"/>
  
      <rect x="186.43200000000002" y="74.39999999999998" width="107.136" height="40.800000000000004" rx="3" fill="url(#gCap-p6a)"/>
      <path d="M153.60000000000002 148.79999999999998 q0 -36 38.831999999999994 -36 h95.136 q38.831999999999994 0 38.831999999999994 36 v249.60000000000002 q0 10 -10 10 h-152.79999999999998 q-10 0 -10 -10 z" fill="url(#gBody-p6a)"/>
      <rect x="153.60000000000002" y="348.48" width="172.79999999999998" height="14.976" fill="#FFC72C" opacity="0.92"/>
    
  <rect x="163.96800000000002" y="261.41952000000003" width="152.064" height="8.386560000000003" fill="#ffffff" opacity="0.36"/>
  <line x1="164.0" y1="250.2" x2="316.0" y2="250.2" stroke="#ffffff" stroke-width="1" opacity="0.32"/>
  <text x="240.0" y="236.3" text-anchor="middle" font-family="'Plus Jakarta Sans', 'Segoe UI', system-ui, sans-serif" font-size="31.7" font-weight="700" letter-spacing="-0.02em" fill="#ffffff">ORIGINAL</text>
  <text x="240.0" y="266.9" text-anchor="middle" font-family="'Plus Jakarta Sans', 'Segoe UI', system-ui, sans-serif" font-size="9.5" font-weight="500" letter-spacing="0.08em" fill="#ffffff" opacity="0.72">10 G PROTEIN</text>
</svg>